<svg xmlns="http://www.w3.org/2000/svg" viewBox="0 0 960 540" font-family="Inter, sans-serif">
  <rect width="960" height="540" fill="#f4f6fa"/>
  <!-- toolbar -->
  <rect x="40" y="36" width="880" height="44" rx="10" fill="#ffffff" stroke="#e3e7ef"/>
  <circle cx="64" cy="58" r="6" fill="#e0556b"/><circle cx="84" cy="58" r="6" fill="#e8a23d"/><circle cx="104" cy="58" r="6" fill="#4cae6b"/>
  <rect x="140" y="48" width="180" height="20" rx="6" fill="#eef1f6"/>
  <rect x="800" y="48" width="100" height="20" rx="6" fill="#3b6fe0" opacity="0.85"/>
  <!-- left chart card -->
  <rect x="40" y="104" width="540" height="400" rx="12" fill="#ffffff" stroke="#e3e7ef"/>
  <text x="64" y="138" font-size="16" fill="#3a4255" font-weight="700">TX response distribution</text>
  <!-- axis -->
  <line x1="80" y1="460" x2="556" y2="460" stroke="#d7dce6"/>
  <line x1="80" y1="170" x2="80" y2="460" stroke="#d7dce6"/>
  <!-- scatter heatmap-ish dots -->
  <g fill="#3b6fe0">
    <rect x="110" y="430" width="9" height="9" rx="2"/><rect x="150" y="438" width="9" height="9" rx="2"/>
    <rect x="190" y="424" width="9" height="9" rx="2"/><rect x="230" y="440" width="9" height="9" rx="2"/>
    <rect x="270" y="418" width="9" height="9" rx="2"/><rect x="310" y="436" width="9" height="9" rx="2"/>
    <rect x="350" y="428" width="9" height="9" rx="2"/><rect x="400" y="442" width="9" height="9" rx="2"/>
    <rect x="450" y="420" width="9" height="9" rx="2"/><rect x="500" y="438" width="9" height="9" rx="2"/>
    <rect x="130" y="300" width="9" height="9" rx="2"/><rect x="220" y="280" width="9" height="9" rx="2"/>
    <rect x="330" y="250" width="9" height="9" rx="2"/><rect x="430" y="230" width="9" height="9" rx="2"/>
    <rect x="510" y="210" width="9" height="9" rx="2"/>
  </g>
  <g fill="#e8820f">
    <rect x="300" y="200" width="9" height="9" rx="2"/><rect x="340" y="195" width="9" height="9" rx="2"/>
    <rect x="380" y="205" width="9" height="9" rx="2"/><rect x="420" y="198" width="9" height="9" rx="2"/>
  </g>
  <g fill="#e0556b">
    <rect x="300" y="455" width="9" height="9" rx="2"/><rect x="340" y="455" width="9" height="9" rx="2"/>
    <rect x="380" y="455" width="9" height="9" rx="2"/><rect x="420" y="455" width="9" height="9" rx="2"/>
  </g>
  <!-- right panel cards -->
  <rect x="600" y="104" width="320" height="120" rx="12" fill="#ffffff" stroke="#e3e7ef"/>
  <text x="624" y="138" font-size="14" fill="#8a93a6">GCCount Trend</text>
  <polyline points="624,200 660,196 700,150 740,150 780,190 820,196 896,198" fill="none" stroke="#3b6fe0" stroke-width="3"/>
  <rect x="600" y="240" width="320" height="120" rx="12" fill="#ffffff" stroke="#e3e7ef"/>
  <text x="624" y="274" font-size="14" fill="#8a93a6">CPU</text>
  <polyline points="624,336 660,330 700,300 740,310 780,290 820,320 896,328" fill="none" stroke="#7b5cf0" stroke-width="3"/>
  <rect x="600" y="376" width="320" height="128" rx="12" fill="#ffffff" stroke="#e3e7ef"/>
  <text x="624" y="410" font-size="14" fill="#8a93a6">Active Sessions</text>
  <g fill="#4cae6b">
    <rect x="624" y="470" width="22" height="20" rx="3"/><rect x="656" y="458" width="22" height="32" rx="3"/>
    <rect x="688" y="446" width="22" height="44" rx="3"/><rect x="720" y="462" width="22" height="28" rx="3"/>
    <rect x="752" y="450" width="22" height="40" rx="3"/><rect x="784" y="468" width="22" height="22" rx="3"/>
    <rect x="816" y="454" width="22" height="36" rx="3"/><rect x="848" y="472" width="22" height="18" rx="3"/>
  </g>
</svg>
